<?xml version="1.0" standalone="no"?>
<!DOCTYPE svg PUBLIC "-//W3C//DTD SVG 20010904//EN"
 "http://www.w3.org/TR/2001/REC-SVG-20010904/DTD/svg10.dtd">
<svg version="1.0" xmlns="http://www.w3.org/2000/svg"
 width="271.000000pt" height="262.000000pt" viewBox="0 0 271.000000 262.000000"
 preserveAspectRatio="xMidYMid meet">

<g transform="translate(0.000000,262.000000) scale(0.100000,-0.100000)"
fill="#000000" stroke="none">
<path d="M12 2608 c-9 -9 -12 -314 -12 -1310 l0 -1298 1355 0 1355 0 0 1310 0
1310 -1343 0 c-1031 0 -1346 -3 -1355 -12z m2030 -819 c165 -27 310 -56 402
-80 l38 -10 -5 -92 c-7 -124 -33 -301 -53 -362 -27 -81 -49 -118 -102 -167
-97 -91 -186 -116 -262 -76 -75 41 -125 123 -145 241 -5 32 -10 38 -28 35 -18
-2 -26 -17 -45 -78 -41 -135 -92 -257 -130 -311 -107 -151 -389 -244 -504
-165 -52 35 -67 66 -103 210 -18 76 -38 143 -42 147 -13 13 -264 108 -403 154
-171 55 -212 80 -261 157 -17 26 -36 48 -42 48 -6 0 -8 -29 -4 -85 10 -136
-23 -122 -42 18 -15 105 -14 114 9 137 24 24 40 21 145 -22 39 -16 182 -72
318 -124 l248 -96 197 56 c233 66 352 86 524 86 l128 0 37 33 c63 55 104 83
192 130 l83 45 -73 7 c-228 21 -274 31 -376 79 -55 25 -113 46 -130 46 -49 0
-122 -56 -174 -134 -60 -88 -87 -114 -126 -122 -26 -5 -37 -1 -57 19 -14 15
-26 30 -26 36 0 29 218 207 299 243 97 44 231 43 513 -3z"/>
<path d="M2280 1586 c-78 -29 -183 -89 -220 -126 -22 -22 -44 -57 -51 -80 -25
-84 23 -304 72 -330 46 -25 160 10 223 68 36 34 82 129 97 201 14 66 7 214
-11 254 -15 31 -50 35 -110 13z"/>
<path d="M1570 1350 c-83 -13 -209 -50 -261 -76 -113 -56 -150 -161 -129 -357
9 -94 23 -126 67 -154 70 -46 265 3 360 91 122 111 195 392 125 475 -21 24
-85 33 -162 21z"/>
</g>
</svg>
